<?xml version="1.0" standalone="no"?>
<!DOCTYPE svg PUBLIC "-//W3C//DTD SVG 20010904//EN"
 "http://www.w3.org/TR/2001/REC-SVG-20010904/DTD/svg10.dtd">
<svg version="1.0" xmlns="http://www.w3.org/2000/svg"
 width="1024.000000pt" height="1024.000000pt" viewBox="0 0 1024.000000 1024.000000"
 preserveAspectRatio="xMidYMid meet">

<g transform="translate(0.000000,1024.000000) scale(0.100000,-0.100000)"
fill="currentColor" stroke="none">
<path d="M4800 8401 c-231 -38 -375 -83 -575 -180 -232 -114 -409 -243 -585
-427 -377 -394 -555 -900 -520 -1478 44 -730 455 -1360 1095 -1679 319 -159
612 -224 965 -214 314 8 534 61 809 193 235 113 400 233 591 431 93 96 260
307 260 328 0 3 -21 -10 -47 -29 -178 -128 -423 -223 -718 -278 -163 -30 -521
-33 -690 -5 -556 93 -1137 381 -1470 728 -236 246 -324 481 -266 709 82 326
385 668 891 1007 293 196 699 391 1058 507 146 48 449 126 489 126 49 0 26 19
-85 73 -187 90 -352 143 -567 183 -142 26 -489 28 -635 5z"/>
<path d="M6226 7914 c-221 -49 -506 -132 -683 -199 -300 -115 -671 -311 -938
-496 -139 -97 -416 -364 -508 -490 -126 -172 -211 -363 -224 -505 -8 -83 16
-175 66 -252 63 -96 66 -95 67 21 1 87 6 116 33 197 72 212 189 389 391 590
242 242 531 441 916 634 340 169 661 277 1076 360 l157 31 -84 73 c-46 39 -90
72 -97 71 -7 0 -85 -16 -172 -35z"/>
<path d="M6645 7544 c-440 -81 -747 -178 -1104 -350 -600 -289 -1011 -645
-1215 -1052 -57 -113 -107 -274 -113 -362 l-6 -75 60 -42 60 -42 12 67 c42
226 208 499 443 727 491 478 1158 800 1950 941 l156 28 -53 85 c-61 99 -60 98
-190 75z"/>
<path d="M6960 7103 c-394 -64 -623 -121 -900 -225 -307 -114 -637 -299 -880
-493 -192 -154 -449 -444 -559 -633 -42 -71 -101 -209 -101 -234 0 -20 133
-84 139 -66 12 36 89 172 139 245 67 97 245 296 346 386 265 237 543 413 874
553 215 92 391 152 577 198 148 37 399 86 441 86 19 0 24 4 21 18 -35 124 -52
172 -61 171 -6 -1 -22 -4 -36 -6z"/>
<path d="M2131 3695 c-138 -31 -261 -115 -309 -211 -47 -93 -53 -212 -16 -319
36 -103 149 -180 364 -246 221 -67 280 -109 288 -205 6 -71 -13 -110 -69 -146
-145 -94 -403 -42 -578 117 -27 24 -42 33 -38 22 4 -10 7 -79 7 -153 l0 -134
58 -29 c162 -81 356 -110 522 -77 167 34 274 109 333 234 30 62 32 75 32 172
0 94 -3 111 -28 161 -55 113 -149 173 -374 240 -154 46 -225 80 -254 121 -51
71 -25 166 57 214 46 27 56 29 149 28 86 -1 112 -5 181 -31 45 -17 107 -47
138 -67 l56 -36 0 130 0 130 -49 25 c-124 63 -338 90 -470 60z"/>
<path d="M6180 3460 l0 -130 -80 0 -80 0 0 -100 0 -100 80 0 80 0 0 -275 c0
-394 18 -454 155 -517 44 -20 66 -23 175 -23 69 0 137 3 153 8 l27 7 0 104 0
103 -98 -5 c-99 -5 -99 -4 -133 26 l-34 30 -3 271 -3 271 130 0 131 0 0 100 0
100 -130 0 -130 0 0 130 0 130 -120 0 -120 0 0 -130z"/>
<path d="M7303 3346 c-23 -8 -57 -23 -76 -35 -38 -23 -107 -95 -107 -111 0 -6
-5 -10 -11 -10 -7 0 -9 24 -7 70 l3 70 -122 0 -123 0 0 -500 0 -500 123 0 122
0 1 278 c0 302 4 332 55 401 45 63 119 94 210 89 l69 -4 0 127 0 127 -31 6
c-42 8 -57 7 -106 -8z"/>
<path d="M3295 3336 c-57 -18 -82 -33 -131 -78 l-44 -41 0 57 0 56 -120 0
-120 0 0 -700 0 -700 120 0 120 0 0 252 0 252 38 -36 c141 -139 388 -124 542
31 230 232 187 713 -77 868 -86 50 -236 68 -328 39z m129 -197 c53 -15 119
-79 146 -141 28 -66 38 -193 20 -269 -14 -63 -47 -123 -87 -161 -89 -85 -247
-76 -345 20 l-38 36 0 205 0 204 42 38 c72 67 172 93 262 68z"/>
<path d="M4323 3335 c-204 -44 -339 -218 -359 -464 -21 -257 100 -467 311
-542 73 -26 200 -35 280 -20 129 24 257 116 317 227 l28 51 -102 40 -102 40
-26 -41 c-55 -87 -125 -126 -222 -126 -132 1 -221 84 -244 228 l-7 42 351 0
351 0 6 33 c4 17 1 72 -5 120 -28 231 -140 364 -342 412 -77 18 -152 18 -235
0z m180 -186 c73 -20 132 -93 152 -186 l7 -33 -226 0 c-124 0 -226 4 -226 9 0
5 7 28 15 52 47 131 154 193 278 158z"/>
<path d="M5383 3335 c-178 -50 -298 -182 -338 -370 -53 -253 43 -505 231 -607
132 -71 323 -77 461 -13 101 46 196 159 217 261 l7 31 -112 17 c-61 10 -112
16 -113 14 -54 -116 -96 -150 -191 -156 -85 -6 -126 10 -178 68 -56 62 -78
129 -78 241 -2 130 29 219 95 277 107 94 271 56 318 -75 10 -27 17 -33 33 -29
11 2 64 10 118 16 91 12 97 14 97 36 0 12 -17 55 -37 95 -45 86 -110 145 -200
179 -75 29 -251 37 -330 15z"/>
<path d="M7833 3339 c-104 -20 -194 -80 -235 -156 -27 -49 -55 -140 -46 -149
3 -3 54 -13 113 -23 75 -13 108 -15 110 -7 2 6 6 24 10 40 32 148 275 173 342
36 12 -25 23 -67 25 -94 l2 -48 -69 -4 c-248 -13 -337 -29 -429 -77 -66 -35
-110 -87 -127 -151 -17 -62 -7 -193 18 -241 48 -92 143 -151 257 -162 131 -12
252 31 331 119 l42 47 7 -69 7 -70 124 0 123 0 -16 33 c-15 27 -18 82 -23 372
-7 392 -10 411 -86 495 -51 57 -112 92 -191 109 -60 13 -226 13 -289 0z m327
-597 c0 -51 -30 -131 -63 -169 -91 -104 -274 -111 -324 -13 -26 51 -10 135 31
169 36 30 93 40 224 41 l132 0 0 -28z"/>
</g>
</svg>
